<svg xmlns="http://www.w3.org/2000/svg" viewBox="0 0 100 100" role="img" aria-label="metronomnom">
  <!-- Static brand favicon: the metronome mascot. Fixed colors (a favicon can't
       follow the app theme); dark rounded square reads on light & dark tab bars. -->
  <rect width="100" height="100" rx="22" fill="#18130e"/>
  <g transform="translate(50 52) scale(0.84) translate(-50 -52)">
    <rect x="22" y="84" width="56" height="10" rx="5" fill="#b9802f"/>
    <path d="M28 86 L38 31 Q39 27 43 27 L57 27 Q61 27 62 31 L72 86 Z" fill="#e8a13a"/>
    <line x1="50" y1="80" x2="58" y2="20" stroke="#b9802f" stroke-width="3.6" stroke-linecap="round"/>
    <rect x="55" y="44" width="10" height="9" rx="2" transform="rotate(13 60 48)" fill="#e8694e"/>
    <circle cx="44" cy="58" r="5" fill="#fff"/>
    <circle cx="45.2" cy="59" r="2.6" fill="#2a1f16"/>
    <circle cx="57" cy="58" r="5" fill="#fff"/>
    <circle cx="58.2" cy="59" r="2.6" fill="#2a1f16"/>
    <path d="M43 69 Q50 78 57 69 Q50 73 43 69 Z" fill="#2a1f16"/>
  </g>
</svg>
